# AST/ASF file generated using VICON BodyLanguage
# -----------------------------------------------
:version 1.10
:name VICON
:units
  mass 1.0
  length 0.45
  angle deg
:documentation
   .ast/.asf automatically generated from VICON data using
   VICON BodyBuilder and BodyLanguage model FoxedUp or BRILLIANT.MOD
:root
   order TX TY TZ RX RY RZ
   axis XYZ
   position 0 0 0  
   orientation 0 0 0 
:bonedata
  begin
     id 1 
     name lhipjoint
     direction 0.578396 -0.714046 0.394458 
     length 2.21935 
     axis 0 0 0  XYZ
  end
  begin
     id 2 
     name lfemur
     direction 0.34202 -0.939693 0  
     length 6.39105  
     axis 0 0 20  XYZ
    dof rx ry rz
    limits (-160.0 20.0)
           (-70.0 70.0)
           (-60.0 70.0)
  end
  begin
     id 3 
     name ltibia
     direction 0.34202 -0.939693 0   
     length 6.99037   
     axis 0 0 20   XYZ
    dof rx
    limits (-10.0 170.0)
  end
  begin
     id 4 
     name lfoot
     direction 0.0582372 -0.160005 0.985397   
     length 2.06111   
     axis -90 7.62852e-016 20   XYZ
    dof rx rz
    limits (-45.0 90.0)
           (-70.0 20.0)
  end
  begin
     id 5 
     name ltoes
     direction 1.53556e-011 -4.21875e-011 1   
     length 1.04074   
     axis -90 7.62852e-016 20   XYZ
    dof rx
    limits (-90.0 20.0)
  end
  begin
     id 6 
     name rhipjoint
     direction -0.558179 -0.726269 0.40121   
     length 2.182  
     axis 0 0 0  XYZ 
  end
  begin
     id 7 
     name rfemur
     direction -0.34202 -0.939693 0   
     length 6.51172   
     axis 0 0 -20   XYZ
    dof rx ry rz
    limits (-160.0 20.0)
           (-70.0 70.0)
           (-70.0 60.0)
  end
  begin
     id 8 
     name rtibia
     direction -0.34202 -0.939693 0   
     length 7.02607   
     axis 0 0 -20   XYZ
    dof rx
    limits (-10.0 170.0)
 end
 begin
     id 9 
     name rfoot
     direction -0.0788856 -0.216737 0.973038   
     length 1.96734  
     axis -90 -7.62852e-016 -20   XYZ
    dof rx rz
    limits (-45.0 90.0)
           (-20.0 70.0)
  end
  begin
     id 10 
     name rtoes
     direction -1.53567e-011 -4.21783e-011 1   
     length 0.990825   
     axis -90 -7.62852e-016 -20   XYZ
    dof rx
    limits (-90.0 20.0)
  end
  begin
     id 11 
     name lowerback
     direction 0.00668177 0.999323 -0.0361741   
     length 1.7655   
     axis 0 0 0   XYZ
    dof rx ry rz
    limits (-20.0 45.0)
           (-30.0 30.0)
           (-30.0 30.0)
  end
  begin
     id 12 
     name upperback
     direction -0.00222086 0.99851 0.0545167   
     length 1.74912   
     axis 0 0 0   XYZ
    dof rx ry rz
    limits (-20.0 45.0)
           (-30.0 30.0)
           (-30.0 30.0)
  end
  begin
     id 13 
     name thorax
     direction -0.00733971 0.997496 0.0703443   
     length 1.75715   
     axis 0 0 0   XYZ
    dof rx ry rz
    limits (-20.0 45.0)
           (-30.0 30.0)
           (-30.0 30.0)
  end
  begin
     id 14 
     name lowerneck
     direction 0.0279797 0.994795 0.0979765   
     length 1.46939   
     axis 0 0 0   XYZ
    dof rx ry rz
    limits (-20.0 45.0)
           (-30.0 30.0)
           (-30.0 30.0)
  end
  begin
     id 15 
     name upperneck
     direction 0.00339187 0.976776 -0.214238   
     length 1.48018   
     axis 0 0 0   XYZ
    dof rx ry rz
    limits (-20.0 45.0)
           (-30.0 30.0)
           (-30.0 30.0)
  end
  begin
     id 16
     name head
     direction -0.00263506 0.996603 -0.0823096  
     length 1.4976  
     axis 0 0 0   XYZ
    dof rx ry rz
    limits (-20.0 45.0)
           (-30.0 30.0)
           (-30.0 30.0)
  end
  begin
     id 17 
     name lclavicle
     direction 0.894044 0.44508 -0.0508781  
     length 3.03024  
     axis 0 0 0   XYZ
    dof ry rz
    limits (-20.0 10.0)
           (0.0 20.0)
  end
  begin
     id 18 
     name lhumerus
     direction 1 -4.48961e-011 -2.39475e-018   
     length 4.4661   
     axis 180 -30 -90   XYZ
    dof rx ry rz
    limits (-60.0 90.0)
           (-90.0 90.0)
           (-90.0 90.0)
  end
  begin
     id 19
     name lradius
     direction 1 -4.48961e-011 9.29328e-028   
     length 3.41414   
     axis 180 -30 -90   XYZ
    dof rx
    limits (-10.0 170.0)
  end
  begin
     id 20
     name lwrist
     direction 1 -4.48985e-011 1.53461e-026   
     length 1.70707   
     axis -1.09697e-014 90 90   XYZ
    dof ry
    limits (-180.0 0.0)
 end
  begin
     id 21 
     name lhand
     direction 1 -4.48966e-011 3.06923e-026   
     length 0.328298   
     axis -1.95843e-014 90 90   XYZ
    dof rx rz
    limits (-90.0 90.0)
           (-45.0 45.0)
  end
  begin
     id 22 
     name lfingers
     direction 1 -4.48893e-011 6.13845e-026   
     length 0.264682   
     axis -3.91686e-014 90 90   XYZ
    dof rx
    limits (0.0 90.0)
  end
  begin
     id 23
     name lthumb
     direction 0.707107 -6.34876e-011 0.707107   
     length 0.380032   
     axis -90 45 2.85299e-015   XYZ
    dof rx rz
    limits (-45.0 45.0)
           (-45.0 45.0)
  end
  begin
     id 24 
     name rclavicle
     direction -0.936955 0.347862 -0.0332887   
     length 3.26927  
     axis 0 0 0   XYZ 
    dof ry rz
    limits (-10.0 20.0)
           (-20.0 0.0)
  end
  begin
     id 25 
     name rhumerus
     direction -1 -4.4896e-011 1.78637e-018  
     length 4.40431   
     axis 180 30 90   XYZ
    dof rx ry rz
    limits (-90.0 60.0)
           (-90.0 90.0)
           (-90.0 90.0)
  end
  begin
     id 26 
     name rradius
     direction -1 -4.48955e-011 9.34036e-027   
     length 3.04688   
     axis 180 30 90   XYZ
    dof rx
    limits (-10.0 170.0)
  end
  begin
     id 27 
     name rwrist
     direction -1 -4.49011e-011 1.53461e-026   
     length 1.52344   
     axis -1.09697e-014 -90 -90   XYZ
    dof ry
    limits (-180.0 0.0)
  end
  begin
     id 28
     name rhand
     direction -1 -4.48834e-011 3.06923e-026   
     length 0.500489   
     axis -1.95843e-014 -90 -90   XYZ
    dof rx rz
    limits (-90.0 90.0)
           (-45.0 45.0)
  end
  begin
     id 29
     name rfingers
     direction -1 -4.48967e-011 6.13845e-026   
     length 0.403507   
     axis -3.91686e-014 -90 -90   XYZ
    dof rx
    limits (0.0 90.0)
  end
  begin
     id 30
     name rthumb
     direction -0.707107 -6.34826e-011 0.707107   
     length 0.579358   
     axis -90 -45 -2.85299e-015   XYZ
    dof rx rz
    limits (-45.0 45.0)
           (-45.0 45.0)
  end
:hierarchy
  begin
    root lhipjoint rhipjoint lowerback
    lhipjoint lfemur
    lfemur ltibia
    ltibia lfoot
    lfoot ltoes
    rhipjoint rfemur
    rfemur rtibia
    rtibia rfoot
    rfoot rtoes
    lowerback upperback
    upperback thorax
    thorax lowerneck lclavicle rclavicle
    lowerneck upperneck
    upperneck head
    lclavicle lhumerus
    lhumerus lradius
    lradius lwrist
    lwrist lhand lthumb
    lhand lfingers
    rclavicle rhumerus
    rhumerus rradius
    rradius rwrist
    rwrist rhand rthumb
    rhand rfingers
  end

#!OML:ASF H:\IndianDance\Patient Classification 1\Patient 1\Session 1\dancer.ASF
:FULLY-SPECIFIED
:DEGREES
579
root -3.48528 14.2228 9.57545 -171.39 -3.85639 -169.699
lowerback 8.5587 -0.350716 -2.28341
upperback -5.12719 -0.63722 3.60377
thorax -10.2653 -0.0799689 5.30737
lowerneck -21.6856 0.0353298 -0.264212
upperneck 29.9203 -6.71637 12.84
head 14.5508 -1.95168 3.83369
rclavicle 3.05631e-015 -2.3059e-014
rhumerus 1.85561 63.7324 -34.2078
rradius 93.9253
rwrist 18.6728
rhand -52.3056 65.8887
rfingers 7.12502
rthumb -24.8004 37.4768
lclavicle 3.05631e-015 -2.3059e-014
lhumerus 49.4275 -64.8546 -19.4266
lradius 101.445
lwrist 8.55596
lhand -46.6545 -22.1916
lfingers 7.12502
lthumb -19.3751 6.86315
rfemur -397.897 -19.3804 398.379
rtibia 58.4881
rfoot -28.5434 -14.8539
rtoes 19.1435
lfemur -47.2249 22.2734 -9.99865
ltibia 64.9596
lfoot -19.1897 9.66419
ltoes 5.15169
580
root -3.45022 14.2303 9.54965 -171.518 -4.18584 -169.69
lowerback 8.30868 -0.33893 -2.64591
upperback -5.13772 -0.666377 3.55711
thorax -10.1237 -0.0730169 5.46047
lowerneck -21.667 0.228054 -0.0928574
upperneck 29.7649 -6.336 12.6789
head 14.4255 -1.77168 3.80515
rclavicle -1.44119e-015 -5.56597e-015
rhumerus 1.62546 63.6062 -34.3272
rradius 93.7894
rwrist 18.6294
rhand -52.4627 65.8977
rfingers 7.12502
rthumb -24.951 37.5067
lclavicle -1.44119e-015 -5.56597e-015
lhumerus 50.3107 -64.4411 -20.2956
lradius 101.403
lwrist 8.53639
lhand -46.8029 -22.3659
lfingers 7.12502
lthumb -19.5178 6.6745
rfemur -397.596 -19.5931 398.508
rtibia 58.3112
rfoot -28.6636 -15.0691
rtoes 19.2619
lfemur -47.314 22.6478 -9.79988
ltibia 65.2593
lfoot -18.6299 8.7049
ltoes 4.32661
581
root -3.41518 14.2417 9.52327 -171.671 -4.49483 -169.718
lowerback 8.08189 -0.318334 -3.02965
upperback -5.14192 -0.684267 3.50154
thorax -9.99058 -0.0593432 5.61471
lowerneck -21.6512 0.439275 0.0997831
upperneck 29.606 -5.91854 12.4779
head 14.2956 -1.57637 3.76311
rclavicle 1.02374e-014 -1.03368e-014
rhumerus 1.42084 63.4764 -34.4087
rradius 93.6692
rwrist 18.5779
rhand -52.6363 65.8723
rfingers 7.12502
rthumb -25.1173 37.5044
lclavicle 1.02374e-014 -1.03368e-014
lhumerus 51.0625 -63.9398 -21.061
lradius 101.403
lwrist 8.49066
lhand -46.9816 -22.5839
lfingers 7.12502
lthumb -19.6896 6.43897
rfemur -397.227 -19.8428 398.584
rtibia 58.0816
rfoot -28.7694 -15.2604
rtoes 19.3219
lfemur -47.358 23.085 -9.63439
ltibia 65.5817
lfoot -18.0605 7.68622
ltoes 3.50669
582
root -3.38171 14.2547 9.49657 -171.847 -4.77849 -169.765
lowerback 7.88759 -0.285867 -3.397
upperback -5.14608 -0.683244 3.43445
thorax -9.87945 -0.0376204 5.74517
lowerneck -21.633 0.668942 0.313412
upperneck 29.4415 -5.46627 12.2406
head 14.1605 -1.36687 3.70857
rclavicle -1.44119e-014 4.29375e-014
rhumerus 1.23341 63.343 -34.4558
rradius 93.5686
rwrist 18.5587
rhand -52.8205 65.8341
rfingers 7.12502
rthumb -25.2938 37.4911
lclavicle -1.44119e-014 4.29375e-014
lhumerus 51.6903 -63.3495 -21.7232
lradius 101.441
lwrist 8.40193
lhand -47.1617 -22.8136
lfingers 7.12502
lthumb -19.8627 6.19138
rfemur -396.809 -20.1363 398.618
rtibia 57.8254
rfoot -28.8648 -15.4101
rtoes 19.3132
lfemur -47.3736 23.5534 -9.4714
ltibia 65.9528
lfoot -17.4475 6.68606
ltoes 2.56899
583
root -3.35137 14.2669 9.46983 -172.039 -5.03334 -169.82
lowerback 7.72343 -0.238072 -3.72096
upperback -5.15715 -0.6566 3.35655
thorax -9.79772 -0.00621702 5.8364
lowerneck -21.5872 0.913877 0.539075
upperneck 29.2419 -4.98467 11.9914
head 14.0046 -1.1453 3.65047
rclavicle 2.17793e-014 -7.95139e-015
rhumerus 1.04969 63.206 -34.4815
rradius 93.4885
rwrist 18.5911
rhand -52.9929 65.7353
rfingers 7.12502
rthumb -25.4589 37.4157
lclavicle 2.17793e-014 -7.95139e-015
lhumerus 52.2083 -62.667 -22.2863
lradius 101.518
lwrist 8.27772
lhand -47.3037 -23.0106
lfingers 7.12502
lthumb -19.9992 5.98022
rfemur -396.371 -20.4688 398.62
rtibia 57.5742
rfoot -28.9542 -15.51
rtoes 19.2395
lfemur -47.391 24.0412 -9.30064
ltibia 66.4022
lfoot -16.829 5.72246
ltoes 1.55865
584
root -3.32514 14.2763 9.4431 -172.237 -5.26147 -169.863
lowerback 7.57809 -0.175901 -3.98084
upperback -5.17986 -0.603783 3.27616
thorax -9.74401 0.0338727 5.88547
lowerneck -21.5148 1.1734 0.777082
upperneck 29.0077 -4.475 11.7275
head 13.8292 -0.91239 3.58731
rclavicle -9.19379e-016 4.13472e-014
rhumerus 0.897243 63.0748 -34.4493
rradius 93.432
rwrist 18.6858
rhand -53.1672 65.5419
rfingers 7.12502
rthumb -25.6259 37.2463
lclavicle -9.19379e-016 4.13472e-014
lhumerus 52.6134 -61.8895 -22.7401
lradius 101.629
lwrist 8.13214
lhand -47.3873 -23.1419
lfingers 7.12502
lthumb -20.0796 5.84052
rfemur -395.945 -20.8304 398.612
rtibia 57.3581
rfoot -29.0494 -15.5585
rtoes 19.1239
lfemur -47.4393 24.5426 -9.11095
ltibia 66.9535
lfoot -16.2654 4.82745
ltoes 0.500763
585
root -3.30313 14.2813 9.41607 -172.427 -5.46243 -169.875
lowerback 7.43083 -0.0991868 -4.1576
upperback -5.21759 -0.522649 3.19753
thorax -9.70985 0.0821408 5.88532
lowerneck -21.4132 1.44676 1.02204
upperneck 28.7332 -3.93932 11.4569
head 13.6331 -0.668805 3.52255
rclavicle -4.17448e-015 1.90833e-014
rhumerus 0.788858 62.9519 -34.345
rradius 93.398
rwrist 18.8068
rhand -53.3237 65.2387
rfingers 7.12502
rthumb -25.7757 36.9647
lclavicle -4.17448e-015 1.90833e-014
lhumerus 52.9291 -61.0074 -23.103
lradius 101.77
lwrist 7.98963
lhand -47.3921 -23.2368
lfingers 7.12502
lthumb -20.0842 5.74515
rfemur -395.556 -21.1991 398.619
rtibia 57.2001
rfoot -29.1566 -15.5716
rtoes 18.9612
lfemur -47.5389 25.066 -8.89816
ltibia 67.6193
lfoot -15.8208 4.02143
ltoes -0.458892
586
root -3.28562 14.2813 9.38859 -172.6 -5.641 -169.858
lowerback 7.29418 -0.0037939 -4.28215
upperback -5.29134 -0.412076 3.14325
thorax -9.72627 0.143025 5.87939
lowerneck -21.2726 1.72968 1.26457
upperneck 28.4317 -3.37577 11.1602
head 13.4197 -0.417153 3.45054
rclavicle -8.75895e-016 -1.66979e-014
rhumerus 0.711604 62.8714 -34.132
rradius 93.3953
rwrist 18.9154
rhand -53.45 64.8174
rfingers 7.12502
rthumb -25.8968 36.561
lclavicle -8.75895e-016 -1.66979e-014
lhumerus 53.1796 -60.0415 -23.3631
lradius 101.929
lwrist 7.85067
lhand -47.3236 -23.3357
lfingers 7.12502
lthumb -20.0184 5.65313
rfemur -395.226 -21.566 398.643
rtibia 57.115
rfoot -29.2813 -15.5549
rtoes 18.7824
lfemur -47.6914 25.606 -8.68258
ltibia 68.3887
lfoot -15.5438 3.37267
ltoes -1.25072
587
root -3.27249 14.2761 9.36065 -172.755 -5.80235 -169.814
lowerback 7.12795 0.0977247 -4.32524
upperback -5.37786 -0.284602 3.09215
thorax -9.74113 0.205898 5.82771
lowerneck -21.0907 2.03279 1.5182
upperneck 28.0786 -2.77583 10.8514
head 13.1795 -0.150569 3.37493
rclavicle 1.62802e-014 -1.27222e-014
rhumerus 0.70957 62.8119 -33.8146
rradius 93.4103
rwrist 18.9947
rhand -53.5806 64.2836
rfingers 7.12502
rthumb -26.0218 36.0455
lclavicle 1.62802e-014 -1.27222e-014
lhumerus 53.3656 -58.9536 -23.5611
lradius 102.081
lwrist 7.63919
lhand -47.2156 -23.4948
lfingers 7.12502
lthumb -19.9145 5.50479
rfemur -394.959 -21.9223 398.685
rtibia 57.107
rfoot -29.4214 -15.528
rtoes 18.577
lfemur -47.8717 26.1507 -8.47773
ltibia 69.221
lfoot -15.4749 2.95087
ltoes -1.75314
